<svg width="60" height="60" viewBox="0 0 69.2783 60.000000" fill="none" xmlns="http://www.w3.org/2000/svg" xmlns:xlink="http://www.w3.org/1999/xlink">
	<desc>
			Created with Pixso.
	</desc>
	<defs/>
	<path id="Vector" d="M68.55 3.65L68.55 39.24L0.72 39.24L0.72 3.65C0.72 2.04 2.01 0.73 3.6 0.73L65.66 0.73C67.26 0.73 68.55 2.04 68.55 3.65Z" fill="#FFFFFF" fill-opacity="1.000000" fill-rule="nonzero"/>
	<path id="Vector" d="M0.72 39.24L0.72 45.78C0.72 47.39 2.01 48.7 3.6 48.7L65.66 48.7C67.26 48.7 68.55 47.39 68.55 45.78L68.55 39.24L0.72 39.24Z" fill="#0387FC" fill-opacity="1.000000" fill-rule="nonzero"/>
	<path id="Vector" d="M27.06 48.7L42.2 48.7L42.2 55.59L27.06 55.59L27.06 48.7Z" fill="#D7E9FF" fill-opacity="1.000000" fill-rule="nonzero"/>
	<path id="Vector" d="M48.27 56.45L50.08 58.27C50.53 58.73 50.21 59.52 49.57 59.52L19.7 59.52C19.06 59.52 18.73 58.73 19.19 58.27L21 56.45C21.54 55.9 22.27 55.59 23.03 55.59L46.24 55.59C47 55.59 47.73 55.9 48.27 56.45Z" fill="#0387FC" fill-opacity="1.000000" fill-rule="nonzero"/>
	<path id="Vector" d="M36.07 43.97C36.07 44.77 35.43 45.43 34.63 45.43C33.84 45.43 33.2 44.77 33.2 43.97C33.2 43.17 33.84 42.51 34.63 42.51C35.43 42.51 36.07 43.17 36.07 43.97Z" fill="#0387FC" fill-opacity="1.000000" fill-rule="evenodd"/>
	<path id="Vector" d="M69.27 3.65C69.27 1.64 67.65 0 65.66 0L3.6 0C1.61 0 0 1.64 0 3.65L0 45.78C0 47.79 1.61 49.44 3.6 49.44L26.34 49.44L26.34 54.86L23.03 54.86C22.07 54.86 21.17 55.24 20.49 55.93L18.68 57.75C17.77 58.67 18.41 60.25 19.7 60.25L49.57 60.25C50.85 60.25 51.5 58.67 50.59 57.75L48.78 55.93C48.1 55.24 47.2 54.86 46.24 54.86L42.93 54.86L42.93 49.44L65.66 49.44C67.65 49.44 69.27 47.79 69.27 45.78C69.27 30.81 69.27 19.69 69.27 3.65ZM1.44 3.65C1.44 2.44 2.41 1.46 3.6 1.46L65.66 1.46C66.86 1.46 67.83 2.44 67.83 3.65L67.83 38.5L1.44 38.5L1.44 3.65ZM47.76 56.96C47.76 56.97 47.76 56.97 47.76 56.97L49.57 58.79L19.7 58.79L21.5 56.96C21.91 56.55 22.46 56.33 23.03 56.33L46.24 56.33C46.81 56.33 47.36 56.55 47.76 56.96ZM41.48 54.86L27.79 54.86L27.79 49.44L41.48 49.44L41.48 54.86ZM67.83 45.78C67.83 46.99 66.86 47.97 65.66 47.97C44.97 47.97 24.25 47.97 3.6 47.97C2.41 47.97 1.44 46.99 1.44 45.78L1.44 39.97L67.83 39.97L67.83 45.78Z" fill="#1A2E35" fill-opacity="1.000000" fill-rule="nonzero"/>
	<path id="Vector" d="M34.63 46.16C35.82 46.16 36.79 45.18 36.79 43.97C36.79 42.76 35.82 41.78 34.63 41.78C33.44 41.78 32.48 42.76 32.48 43.97C32.48 45.18 33.44 46.16 34.63 46.16ZM34.63 43.25C35.03 43.25 35.35 43.57 35.35 43.97C35.35 44.37 35.03 44.7 34.63 44.7C34.24 44.7 33.92 44.37 33.92 43.97C33.92 43.57 34.24 43.25 34.63 43.25Z" fill="#1A2E35" fill-opacity="1.000000" fill-rule="nonzero"/>
	<path id="Vector" d="M55.7 8.62L7.36 8.62C6.96 8.62 6.63 8.95 6.63 9.35C6.63 9.76 6.96 10.09 7.36 10.09L55.7 10.09C56.1 10.09 56.42 9.76 56.42 9.35C56.42 8.95 56.1 8.62 55.7 8.62Z" fill="#1A2E35" fill-opacity="1.000000" fill-rule="nonzero"/>
	<path id="Vector" d="M55.7 13.62L7.36 13.62C6.96 13.62 6.63 13.95 6.63 14.35C6.63 14.76 6.96 15.09 7.36 15.09L55.7 15.09C56.1 15.09 56.42 14.76 56.42 14.35C56.42 13.95 56.1 13.62 55.7 13.62Z" fill="#1A2E35" fill-opacity="1.000000" fill-rule="nonzero"/>
	<path id="Vector" d="M45.7 18.62L7.36 18.62C6.96 18.62 6.63 18.95 6.63 19.35C6.63 19.76 6.96 20.09 7.36 20.09L45.7 20.09C46.1 20.09 46.42 19.76 46.42 19.35C46.42 18.95 46.1 18.62 45.7 18.62Z" fill="#1A2E35" fill-opacity="1.000000" fill-rule="nonzero"/>
	<path id="Vector" d="M35.7 23.62L7.36 23.62C6.96 23.62 6.63 23.95 6.63 24.35C6.63 24.76 6.96 25.09 7.36 25.09L35.7 25.09C36.1 25.09 36.42 24.76 36.42 24.35C36.42 23.95 36.1 23.62 35.7 23.62Z" fill="#1A2E35" fill-opacity="1.000000" fill-rule="nonzero"/>
	<path id="Vector" d="M25.7 28.62L7.36 28.62C6.96 28.62 6.63 28.95 6.63 29.35C6.63 29.76 6.96 30.09 7.36 30.09L25.7 30.09C26.1 30.09 26.42 29.76 26.42 29.35C26.42 28.95 26.1 28.62 25.7 28.62Z" fill="#1A2E35" fill-opacity="1.000000" fill-rule="nonzero"/>
</svg>
