<?xml version="1.0" encoding="UTF-8"?> <svg xmlns="http://www.w3.org/2000/svg" width="198" height="203" viewBox="0 0 198 203" fill="none"> <g clip-path="url(#clip0)"> <path d="M39.9051 193.78C39.405 194.776 38.3701 195.136 37.5507 195.749C37.149 196.052 36.6462 196.215 36.2205 196.494C35.0952 197.245 33.9832 198.015 32.8764 198.793C32.2646 199.222 31.6793 199.685 31.078 200.124C30.95 200.222 30.8095 200.302 30.6604 200.362C27.4919 201.616 24.3181 202.918 20.8516 202.996C17.7549 203.08 14.6777 202.481 11.8383 201.24C10.0385 200.448 8.36925 199.386 6.88738 198.092C5.88302 197.182 4.98436 196.16 4.2084 195.048C3.25599 193.716 2.21579 192.433 1.7449 190.827C1.36122 189.61 1.04504 188.373 0.797814 187.122C0.451967 185.194 0.0608941 183.241 0.0369508 181.302C-0.000294223 178.546 -0.125331 175.768 0.406741 173.025C0.77121 171.142 1.15164 169.256 1.37511 167.352C1.93645 162.539 3.46084 157.987 5.15282 153.502C6.19569 150.735 7.48064 148.05 8.78688 145.392C11.0828 140.715 13.799 136.267 16.5019 131.827C17.7496 129.785 19.2634 127.904 20.6468 125.941C21.3172 124.996 21.9237 124.002 22.6287 123.086C23.5315 121.914 24.4706 120.772 25.4461 119.658C27.2338 117.608 28.9976 115.53 30.8785 113.567C34.1188 110.188 37.2634 106.696 41.0145 103.854C42.4484 102.77 43.752 101.513 45.2072 100.461C46.7918 99.3048 48.4393 98.2378 50.1422 97.2648C52.2279 96.0849 54.3828 95.0302 56.5271 93.9729C59.9636 92.3132 63.7157 91.4104 67.5303 91.3255C69.6107 91.2562 71.7097 91.1683 73.7183 91.8368C76.3308 92.7078 78.1957 94.3484 79.039 97.0784C80.1271 100.581 80.2761 104.16 80.1218 107.777C79.9568 111.554 79.3237 115.275 78.6533 118.982C78.3872 120.402 77.9403 121.781 77.5891 123.179C77.5306 123.403 77.4987 123.635 77.4029 124.13C78.2675 123.55 78.922 123.065 79.6163 122.655C80.8534 121.917 82.1011 121.195 83.3727 120.524C84.3624 119.991 85.4106 120.127 86.4029 120.524C86.7489 120.713 87.0403 120.988 87.2489 121.323C87.4614 121.685 87.6395 122.065 87.781 122.46C88.885 120.391 89.9092 118.503 90.9069 116.601C91.8832 114.758 92.8676 112.923 93.804 111.061C95.0038 108.664 96.1558 106.246 97.337 103.838C98.7603 100.938 100.234 98.0612 101.594 95.1368C102.695 92.7823 103.663 90.364 104.714 87.9829C105.169 86.9575 105.706 85.9668 106.161 84.9414C107.638 81.6068 109.12 78.2829 110.551 74.9217C112.126 71.2383 113.565 67.4936 115.209 63.8447C117.258 59.2984 118.716 54.5416 120.517 49.9099C121.725 46.8071 122.645 43.619 123.645 40.455C124.739 36.9926 125.774 33.4822 126.572 29.9266C126.878 28.5949 127.266 27.2925 127.559 25.9609C127.801 24.8689 127.958 23.7582 128.157 22.6556C128.897 18.5913 129.674 14.5296 129.722 10.3774C129.722 9.376 129.738 8.36924 129.687 7.37047C129.658 6.35595 129.29 5.38046 128.641 4.60056C126.513 2.04638 123.768 1.09556 120.514 1.64421C119.29 1.85195 118.029 2.01176 116.885 2.44322C114.832 3.24224 112.826 4.15578 110.849 5.12258C108.019 6.5404 105.315 8.19585 102.764 10.0711C101.434 11.0273 100.104 11.9755 98.7736 12.9369C98.5501 13.0994 98.2202 13.2699 98.1697 13.4909C97.8717 14.756 96.8156 15.278 95.9243 16.0051C94.6607 17.0359 93.2852 17.9414 92.269 19.2731C91.8354 19.8404 91.2448 20.3944 90.3456 20.1307C90.2152 20.0934 89.997 20.2745 89.8507 20.3971C89.1617 20.9457 88.462 21.4837 87.8076 22.0697C86.2113 23.5079 84.5885 24.9408 83.0189 26.4243C80.4889 28.8213 77.8924 31.1678 75.5167 33.7139C72.42 37.0236 69.4351 40.4345 66.5619 43.9466C64.2022 46.8258 62.0739 49.894 59.8445 52.8823C57.2241 56.3899 54.9707 60.1347 52.8185 63.9406C51.9113 65.5386 51.0733 67.1953 50.3284 68.8785C48.9982 71.8881 47.668 74.9031 46.5135 77.9793C45.3828 80.9809 44.4304 84.0544 43.9781 87.2478C43.744 88.9098 43.5764 90.5824 43.4195 92.255C43.3447 92.7739 43.3795 93.3028 43.5215 93.8074C43.6636 94.312 43.9098 94.7812 44.2442 95.1847C44.4768 95.4473 44.6458 95.76 44.7381 96.0986C44.8304 96.4372 44.8434 96.7925 44.7762 97.137C44.0792 96.9106 43.4727 96.8546 43.3662 96.0716C43.3476 95.9384 43.2119 95.7334 43.1002 95.7174C42.3021 95.5975 42.3021 94.9184 42.1771 94.3697C41.8445 92.7717 42.1558 91.1737 42.3686 89.5756C42.491 88.6648 42.608 87.7512 42.7889 86.851C42.9512 86.036 43.1907 85.2317 43.4088 84.4273C43.4487 84.2755 43.6004 84.137 43.5977 83.9958C43.5445 81.9264 44.4437 80.094 45.0715 78.203C45.7393 76.1922 46.4283 74.176 47.2903 72.2424C48.6205 69.278 49.9719 66.3217 51.5282 63.4799C53.1803 60.4596 55.0905 57.5831 56.8676 54.6294C57.6401 53.4191 58.4934 52.2623 59.4215 51.1671C60.7517 49.5184 61.8318 47.6887 63.1008 45.9974C64.2022 44.5273 65.4206 43.1423 66.5832 41.7174C68.2779 39.64 69.9592 37.5519 71.6751 35.4904C72.1833 34.8858 72.7898 34.3611 73.3458 33.7992C75.5433 31.5779 77.6716 29.2714 79.9542 27.1567C82.0825 25.1672 84.397 23.3587 86.6051 21.4518C87.8501 20.3864 89.0579 19.2678 90.287 18.1785C91.4257 17.169 92.5803 16.1809 93.7029 15.1582C94.9719 13.9996 96.201 12.7984 97.4727 11.6452C97.834 11.3459 98.2275 11.0877 98.6459 10.8755C99.1966 10.5639 99.8005 10.3428 100.33 9.9939C102.948 8.29467 105.47 6.42764 108.178 4.89353C110.99 3.29551 113.86 1.76406 116.986 0.826554C119.881 -0.0443702 122.839 -0.366639 125.736 0.594841C129.067 1.70014 130.897 3.71366 131.057 7.37314C131.251 11.7224 130.719 16.0318 129.833 20.2932C128.894 24.8209 128.061 29.3487 126.952 33.8338C126.01 37.6451 124.795 41.3925 123.605 45.1372C122.682 48.0403 121.666 50.9194 120.594 53.7692C119.253 57.3363 117.855 60.8813 116.401 64.404C114.664 68.5882 112.839 72.7378 111.033 76.8926C109.545 80.3124 108.061 83.7322 106.51 87.128C104.807 90.8913 103.091 94.6494 101.298 98.3701C99.1061 102.922 96.8421 107.439 94.5808 111.953C93.3039 114.5 91.9817 117.014 90.6488 119.541C90.0157 120.737 89.3453 121.92 88.627 123.068C87.9544 124.204 87.5241 125.467 87.3633 126.778C87.076 128.642 86.6636 130.472 86.3444 132.326C85.799 135.506 84.3757 138.406 83.4313 141.458C82.7399 143.803 81.8637 146.089 80.8108 148.295C79.7841 150.376 78.8677 152.51 78.0653 154.687C77.9483 155.007 77.8552 155.337 77.7487 155.662L77.9775 155.755C78.7996 154.306 79.6988 152.892 80.4304 151.401C81.6089 149.004 83.2211 146.921 84.9025 144.875C86.0677 143.453 87.2143 142.012 88.3849 140.593C90.0664 138.499 91.9581 136.584 94.0302 134.877C95.2406 133.908 96.6187 133.133 97.9675 132.349C98.4016 132.13 98.8946 132.056 99.3738 132.139C99.8529 132.222 100.293 132.458 100.628 132.81C101.16 133.383 101.006 134.105 100.923 134.765C100.75 136.11 100.372 137.429 100.311 138.787C100.25 140.145 99.7792 141.525 100.271 142.915C100.561 143.714 100.867 143.938 101.559 143.464C102.155 143.064 102.671 142.556 103.078 141.964C104.334 140.06 105.507 138.1 106.715 136.163C107.984 134.121 109.295 132.107 110.508 130.038C111.663 128.067 112.746 126.043 113.799 124.024C115.396 120.964 117.024 117.925 118.439 114.785C119.737 111.994 121.203 109.285 122.829 106.672C123.983 104.76 124.635 102.677 125.598 100.709C126.178 99.5287 126.878 98.41 127.513 97.2621C127.923 96.527 128.328 95.7893 128.716 95.0409C130.17 92.2284 131.622 89.4132 133.071 86.5953C134.273 84.2409 135.466 81.8802 136.649 79.5134C136.862 79.0899 137.109 78.7144 137.652 78.8742C138.056 78.9834 138.267 79.5667 138.115 80.0967C138.048 80.3269 137.959 80.5499 137.849 80.7625C137.403 81.6502 137.053 82.5833 136.806 83.5457C136.276 85.3056 135.654 87.0365 134.944 88.7313C134.215 90.5957 133.377 92.4201 132.669 94.2925C131.438 97.5524 130.242 100.826 129.08 104.112C127.968 107.25 126.926 110.409 125.827 113.549C125.484 114.529 125.053 115.477 124.664 116.441C124.574 116.665 124.486 116.889 124.411 117.118C123.52 119.935 122.642 122.756 121.735 125.566C121.456 126.434 121.073 127.27 120.78 128.136C120.099 130.142 119.45 132.155 118.785 134.169C118.561 134.85 118.394 135.554 118.16 136.233C117.729 137.471 117.266 138.699 116.829 139.935C116.61 140.439 116.439 140.964 116.319 141.501C116.094 142.959 115.645 144.374 114.988 145.696C114.773 146.126 114.633 146.59 114.573 147.067C114.464 148.055 114.249 148.966 113.539 149.731C113.482 149.831 113.447 149.943 113.434 150.057C113.421 150.172 113.431 150.288 113.464 150.399C113.6 151.006 113.395 151.478 113.052 151.963C112.812 152.321 112.632 152.717 112.52 153.134C111.988 155.015 111.487 156.908 110.923 158.786C110.484 160.272 110.16 161.79 109.372 163.173C109.106 163.647 109.263 164.353 109.106 164.912C108.891 165.636 108.524 166.31 108.263 167.024C107.771 168.377 107.308 169.741 106.84 171.102C106.803 171.197 106.786 171.299 106.791 171.401C106.796 171.504 106.821 171.604 106.866 171.696C108.197 170.273 109.497 168.83 110.857 167.434C112.325 165.905 113.855 164.438 115.316 162.906C116.776 161.375 118.213 159.71 119.687 158.155C121.051 156.698 122.451 155.276 123.842 153.846C124.93 152.727 126.026 151.619 127.12 150.506C127.202 150.421 127.263 150.314 127.351 150.239C130.352 147.471 133.355 144.705 136.359 141.94C137.269 141.104 138.176 140.265 139.129 139.482C142.252 136.92 145.442 134.44 148.514 131.819C151.35 129.398 154.367 127.225 157.352 125.007C161.212 122.138 165.11 119.326 169.236 116.843C171.229 115.645 173.147 114.316 175.179 113.194C179.284 110.933 183.365 108.619 187.723 106.853C190.024 105.921 192.275 104.866 194.563 103.902C195.653 103.441 196.779 103.066 198.021 102.605C197.843 103.308 197.319 103.404 196.93 103.588C194.653 104.584 192.336 105.484 190.077 106.517C187.38 107.751 184.69 109.013 182.064 110.39C179.582 111.692 177.127 113.069 174.764 114.574C170.915 117.024 167.124 119.571 163.356 122.149C160.732 123.921 158.156 125.767 155.631 127.689C153.236 129.505 150.946 131.439 148.607 133.319C146.894 134.696 145.149 136.033 143.47 137.453C141.635 139.003 139.839 140.603 138.064 142.225C134.928 145.094 131.762 147.933 128.719 150.897C125.736 153.8 122.866 156.829 119.985 159.83C116.874 163.058 113.782 166.305 110.708 169.57C109.335 171.027 108.008 172.524 106.696 174.034C106.261 174.554 105.879 175.116 105.555 175.712C104.81 177.044 104.073 178.375 103.411 179.736C103.243 180.085 103.387 180.578 103.344 180.999C103.315 181.286 103.288 181.643 103.11 181.827C103.001 181.942 102.607 181.827 102.357 181.758C102.131 181.68 101.916 181.572 101.719 181.438C101.048 181.033 100.907 180.626 101.234 179.933C101.497 179.307 101.812 178.704 102.176 178.13C103.086 176.831 103.61 175.36 104.166 173.901C105.148 171.317 106.18 168.75 107.093 166.137C107.811 164.06 108.356 161.924 109.011 159.822C109.508 158.224 110.061 156.626 110.586 155.028C111.426 152.45 112.266 149.875 113.105 147.304C114.395 143.347 115.656 139.375 116.976 135.428C118.003 132.352 119.139 129.303 120.168 126.234C121.357 122.665 122.448 119.062 123.627 115.493C124.459 112.987 125.398 110.515 126.266 108.02C126.62 106.999 126.904 105.955 127.239 104.927C127.772 103.295 128.304 101.657 128.865 100.037C129.426 98.418 130.102 96.7401 130.711 95.0888C130.879 94.6773 130.961 94.236 130.953 93.7918C130.803 93.958 130.666 94.1362 130.544 94.3244C129.192 96.7801 127.841 99.2357 126.518 101.707C126.354 102.065 126.248 102.446 126.202 102.837C126.021 103.87 125.766 104.842 125.119 105.726C122.77 108.933 121.094 112.539 119.375 116.124C118.787 117.352 118.088 118.521 117.465 119.733C116.547 121.515 115.712 123.345 114.733 125.089C113.44 127.393 112.027 129.63 110.687 131.905C109.074 134.656 107.478 137.431 105.834 140.182C105.1 141.424 104.32 142.641 103.525 143.847C103.151 144.368 102.624 144.759 102.017 144.964C101.41 145.169 100.754 145.178 100.141 144.99C99.0769 144.62 98.582 144.06 98.6352 142.944C98.7337 140.944 98.9438 138.949 99.1114 136.952C99.2019 135.886 99.3056 134.821 99.42 133.559C98.888 133.609 98.5315 133.559 98.2442 133.684C95.9086 134.681 93.8399 136.213 92.2051 138.158C89.473 141.354 86.778 144.577 84.2241 147.901C83.0588 149.408 82.2394 151.185 81.2684 152.842C80.7204 153.776 80.159 154.706 79.6403 155.651C79.2705 156.336 78.7703 156.919 78.6666 157.782C78.5575 158.714 76.8256 159.961 75.8971 160.025C75.2799 160.067 74.9501 159.532 75.2001 158.861C75.9716 156.799 76.7139 154.725 77.5386 152.682C78.499 150.306 79.5498 147.968 80.5262 145.597C81.6718 142.742 82.6646 139.828 83.5004 136.867C84.0165 135.101 84.6205 133.359 85.1472 131.596C85.3467 130.93 85.4425 130.235 85.5862 129.553L85.3201 129.462C84.7588 130.458 84.1868 131.447 83.6414 132.448C82.1889 135.127 80.7408 137.809 79.2971 140.491C78.7836 141.442 78.2728 142.393 77.7275 143.325C75.4608 147.198 73.2687 151.121 70.8824 154.919C68.0677 159.401 65.1679 163.836 62.1404 168.177C59.5971 171.826 56.8197 175.323 54.1407 178.865C53.1936 180.109 52.1747 181.297 51.1717 182.498C50.9274 182.761 50.6661 183.007 50.3896 183.236C50.4135 183.01 50.4401 182.786 50.4641 182.559C50.6556 182.346 50.8498 182.133 51.044 181.923L50.8472 181.792C50.7301 182.059 50.6104 182.325 50.4907 182.591C50.2221 182.695 49.9866 182.87 49.8091 183.097C49.6316 183.324 49.5187 183.595 49.4824 183.881L48.8838 184.477C48.1496 185.09 47.4792 185.697 47.1679 186.698C47.0627 187.044 46.8593 187.352 46.5825 187.584C46.3057 187.816 45.9675 187.963 45.6089 188.006C45.4135 188.022 45.2308 188.109 45.0955 188.251C44.5075 189.109 43.3529 189.546 43.2332 190.763C43.2199 190.896 43.063 191.029 42.9539 191.138C42.209 191.916 41.4747 192.707 40.6979 193.45C40.4904 193.65 40.1472 193.7 39.8652 193.823L41.2353 192.212C40.5808 192.744 39.7827 193.128 39.256 194.164L39.9051 193.78ZM84.2906 129.707C84.3225 129.241 84.2719 128.908 84.3837 128.642C84.5715 128.155 84.8238 127.695 85.1339 127.276C86.1688 125.944 86.198 124.375 86.1448 122.801C86.1182 122.037 85.6926 121.616 84.9184 121.629C84.4403 121.655 83.9687 121.752 83.5191 121.917C82.133 122.37 80.9704 123.249 79.7493 124.002C77.997 125.076 76.659 126.711 75.953 128.642C75.3784 130.181 74.8383 131.734 74.2397 133.266C73.5986 134.909 73.0053 136.584 72.2152 138.156C70.7022 141.252 69.0146 144.259 67.1605 147.163C65.958 149.002 64.6026 150.736 63.1088 152.346C62.8427 152.628 62.5767 153.017 62.0978 152.767C61.619 152.517 61.5445 152.12 61.6456 151.64C61.76 151.092 61.8558 150.54 61.9861 149.994C62.3958 148.282 62.6991 146.532 63.2684 144.873C64.2113 142.229 65.3679 139.666 66.7269 137.21C68.5439 133.833 70.6615 130.677 73.3778 127.992C74.7192 126.727 75.6544 125.09 76.0647 123.291C76.7963 120.047 77.5306 116.803 78.217 113.549C78.4436 112.405 78.6035 111.249 78.6958 110.086C78.773 109.253 78.6958 108.408 78.7224 107.572C78.8399 104.605 78.5951 101.635 77.9935 98.727C77.792 97.8275 77.4461 96.9667 76.9693 96.1781C75.5912 93.8424 73.3033 93.0114 70.7759 92.8516C68.8658 92.7317 66.9397 92.8649 65.0216 92.9075C64.5406 92.9156 64.0621 92.9791 63.5956 93.0966C60.9725 93.7891 58.3228 94.3804 55.9391 95.7973C54.2604 96.796 52.4806 97.611 50.7541 98.5432C48.2134 99.9229 46.016 101.801 43.6881 103.484C42.624 104.256 41.5599 105.047 40.5197 105.836C40.3263 105.976 40.1431 106.13 39.9716 106.296C39.4635 106.794 38.9953 107.34 38.4552 107.798C37.4815 108.624 36.4546 109.383 35.4756 110.195C34.4966 111.008 33.9406 112.164 32.8897 112.891C32.6237 113.08 32.2832 113.498 32.3204 113.764C32.4561 114.745 31.7884 114.95 31.1419 115.28C30.6478 115.517 30.2028 115.845 29.8303 116.247C28.7901 117.459 27.8244 118.732 26.8161 119.975C26.1351 120.806 25.3742 121.573 24.7464 122.444C22.9453 124.937 21.1655 127.446 19.4257 129.987C18.162 131.851 16.9409 133.716 15.7783 135.641C14.4907 137.772 13.2882 139.945 12.0538 142.105C9.77714 146.116 7.81155 150.295 6.1744 154.607C4.77028 158.278 3.70175 162.068 2.98197 165.932C2.43394 169.027 2.0003 172.127 1.59592 175.227C1.40951 176.54 1.36225 177.87 1.45492 179.193C1.67307 181.91 1.94709 184.626 2.39403 187.311C2.78776 189.708 3.54065 191.988 5.29116 193.802C5.42587 193.95 5.53875 194.117 5.62637 194.297C6.55409 196.029 7.91544 197.49 9.577 198.537C10.9604 199.445 12.4768 200.029 14.0012 200.641C15.5552 201.282 17.1995 201.677 18.875 201.81C22.5489 202.077 26.0579 201.278 29.3648 199.712C30.741 199.056 32.0739 198.313 33.3553 197.488C34.7137 196.646 36.0132 195.712 37.2448 194.694C38.9208 193.269 40.5064 191.732 42.0733 190.187C44.3825 187.913 46.7103 185.66 48.8971 183.263C50.6769 181.321 52.2625 179.198 53.9518 177.163C54.6382 176.335 55.3991 175.565 56.0269 174.692C57.4768 172.686 58.8762 170.644 60.2835 168.601C62.2548 165.73 64.2394 162.869 66.1629 159.963C67.7591 157.559 69.3056 155.123 70.8025 152.655C72.7526 149.438 74.6388 146.183 76.5303 142.931C77.5758 141.133 78.5841 139.314 79.5871 137.49C80.8614 135.17 82.1091 132.834 83.3701 130.509C83.5723 130.104 83.8011 129.67 84.2906 129.707ZM74.2477 129.071C73.9963 129.265 73.7581 129.476 73.5347 129.702C72.5265 130.949 71.465 132.155 70.5471 133.463C68.488 136.428 66.7911 139.629 65.4925 142.998C64.7954 144.785 64.2394 146.628 63.6568 148.458C63.5889 148.824 63.5665 149.197 63.5903 149.568L63.8563 149.624C68.371 143.408 71.6991 136.598 74.2477 129.058V129.071ZM52.5684 179.907L52.7254 180.075L53.4118 179.108L53.2362 178.983L52.5684 179.907ZM77.0996 142.952L77.2646 143.032L77.7115 142.156L77.5333 142.071L77.0996 142.952ZM54.6994 177.576L54.5398 177.398L54.2046 177.824L54.4147 178.024L54.6994 177.576Z" fill="#202C54"></path> <path d="M48.8895 184.476L49.4827 183.88C49.7984 183.651 50.1132 183.42 50.4271 183.187L48.509 185.528C48.3201 185.014 48.5835 184.735 48.8895 184.476Z" fill="#202C54"></path> </g> <defs> <clipPath id="clip0"> <rect width="198" height="203" fill="white"></rect> </clipPath> </defs> </svg> 