<svg width="61.201172" height="60.000000" viewBox="0 0 61.2012 62.5419" fill="none" xmlns="http://www.w3.org/2000/svg" xmlns:xlink="http://www.w3.org/1999/xlink">
	<desc>
			Created with Pixso.
	</desc>
	<defs/>
	<path id="Vector" d="M60.04 7.86L60.04 59.97C60.04 61.34 58.93 62.45 57.56 62.45L7.46 62.45C6.09 62.45 4.98 61.34 4.98 59.97L4.98 56.73C3.65 56.73 2.43 56.18 1.56 55.31C0.68 54.43 0.14 53.22 0.14 51.88L4.98 51.88L4.98 7.86C4.98 6.49 6.09 5.39 7.46 5.39L57.56 5.39C58.93 5.39 60.04 6.49 60.04 7.86Z" fill="#FFFFFF" fill-opacity="1.000000" fill-rule="nonzero"/>
	<path id="Vector 7" d="M1.06 51.58C1.36 53.1 2.61 56.15 5.17 56.15L55.33 56.15C55.56 56.17 55.76 56.17 55.94 56.15L55.33 56.15C53.98 56 51.85 54.88 50.91 51.12L1.06 51.58Z" fill="#0387FC" fill-opacity="1.000000" fill-rule="evenodd"/>
	<path id="Vector" d="M15.66 24.59C13.51 24.59 11.75 26.35 11.75 28.5C11.75 30.66 13.51 32.41 15.66 32.41C17.82 32.41 19.57 30.66 19.57 28.5C19.57 26.35 17.82 24.59 15.66 24.59Z" fill="#0387FC" fill-opacity="1.000000" fill-rule="nonzero"/>
	<path id="Vector" d="M15.66 24.59C13.51 24.59 11.75 26.35 11.75 28.5C11.75 30.66 13.51 32.41 15.66 32.41C17.82 32.41 19.57 30.66 19.57 28.5C19.57 26.35 17.82 24.59 15.66 24.59ZM15.66 31.1C14.22 31.1 13.05 29.94 13.05 28.5C13.05 27.06 14.22 25.9 15.66 25.9C17.1 25.9 18.27 27.06 18.27 28.5C18.27 29.94 17.1 31.1 15.66 31.1Z" fill="#1A2E35" fill-opacity="1.000000" fill-rule="nonzero"/>
	<path id="Vector" d="M27.24 24.59C25.08 24.59 23.32 26.35 23.32 28.5C23.32 30.66 25.08 32.41 27.24 32.41C29.39 32.41 31.14 30.66 31.14 28.5C31.14 26.35 29.39 24.59 27.24 24.59Z" fill="#0387FC" fill-opacity="1.000000" fill-rule="nonzero"/>
	<path id="Vector" d="M27.24 24.59C25.08 24.59 23.32 26.35 23.32 28.5C23.32 30.66 25.08 32.41 27.24 32.41C29.39 32.41 31.14 30.66 31.14 28.5C31.14 26.35 29.39 24.59 27.24 24.59ZM27.24 31.1C25.79 31.1 24.62 29.94 24.62 28.5C24.62 27.06 25.79 25.9 27.24 25.9C28.67 25.9 29.84 27.06 29.84 28.5C29.84 29.94 28.67 31.1 27.24 31.1Z" fill="#1A2E35" fill-opacity="1.000000" fill-rule="nonzero"/>
	<path id="Vector" d="M38.81 24.67C36.65 24.67 34.89 26.42 34.89 28.58C34.89 30.73 36.65 32.49 38.81 32.49C40.96 32.49 42.71 30.73 42.71 28.58C42.71 26.42 40.96 24.67 38.81 24.67Z" fill="#0387FC" fill-opacity="1.000000" fill-rule="nonzero"/>
	<path id="Vector" d="M38.81 24.59C36.65 24.59 34.89 26.35 34.89 28.5C34.89 30.66 36.65 32.41 38.81 32.41C40.96 32.41 42.71 30.66 42.71 28.5C42.71 26.35 40.96 24.59 38.81 24.59ZM38.81 31.1C37.37 31.1 36.19 29.94 36.19 28.5C36.19 27.06 37.37 25.9 38.81 25.9C40.24 25.9 41.41 27.06 41.41 28.5C41.41 29.94 40.24 31.1 38.81 31.1Z" fill="#1A2E35" fill-opacity="1.000000" fill-rule="nonzero"/>
	<path id="Vector" d="M50.38 32.41C52.53 32.41 54.29 30.66 54.29 28.5C54.29 26.35 52.53 24.59 50.38 24.59C48.22 24.59 46.46 26.35 46.46 28.5C46.46 30.66 48.22 32.41 50.38 32.41Z" fill="#0387FC" fill-opacity="1.000000" fill-rule="nonzero"/>
	<path id="Vector" d="M50.38 32.41C52.53 32.41 54.29 30.66 54.29 28.5C54.29 26.35 52.53 24.59 50.38 24.59C48.22 24.59 46.46 26.35 46.46 28.5C46.46 30.66 48.22 32.41 50.38 32.41ZM50.38 25.9C51.81 25.9 52.98 27.06 52.98 28.5C52.98 29.94 51.81 31.11 50.38 31.11C48.94 31.11 47.77 29.94 47.77 28.5C47.77 27.06 48.94 25.9 50.38 25.9Z" fill="#1A2E35" fill-opacity="1.000000" fill-rule="nonzero"/>
	<path id="Vector" d="M15.66 35.57C13.51 35.57 11.75 37.32 11.75 39.48C11.75 41.63 13.51 43.38 15.66 43.38C17.82 43.38 19.57 41.63 19.57 39.48C19.57 37.32 17.82 35.57 15.66 35.57Z" fill="#0387FC" fill-opacity="1.000000" fill-rule="nonzero"/>
	<path id="Vector" d="M15.66 35.57C13.51 35.57 11.75 37.32 11.75 39.48C11.75 41.63 13.51 43.38 15.66 43.38C17.82 43.38 19.57 41.63 19.57 39.48C19.57 37.32 17.82 35.57 15.66 35.57ZM15.66 42.08C14.22 42.08 13.05 40.91 13.05 39.48C13.05 38.04 14.22 36.87 15.66 36.87C17.1 36.87 18.27 38.04 18.27 39.48C18.27 40.91 17.1 42.08 15.66 42.08Z" fill="#1A2E35" fill-opacity="1.000000" fill-rule="nonzero"/>
	<path id="Vector" d="M27.24 35.57C25.08 35.57 23.32 37.32 23.32 39.48C23.32 41.63 25.08 43.38 27.24 43.38C29.39 43.38 31.14 41.63 31.14 39.48C31.14 37.32 29.39 35.57 27.24 35.57Z" fill="#0387FC	" fill-opacity="1.000000" fill-rule="nonzero"/>
	<path id="Vector" d="M27.24 35.57C25.08 35.57 23.32 37.32 23.32 39.48C23.32 41.63 25.08 43.38 27.24 43.38C29.39 43.38 31.14 41.63 31.14 39.48C31.14 37.32 29.39 35.57 27.24 35.57ZM27.24 42.08C25.79 42.08 24.62 40.91 24.62 39.48C24.62 38.04 25.79 36.87 27.24 36.87C28.67 36.87 29.84 38.04 29.84 39.48C29.84 40.91 28.67 42.08 27.24 42.08Z" fill="#1A2E35" fill-opacity="1.000000" fill-rule="nonzero"/>
	<path id="Vector" d="M38.81 35.57C36.65 35.57 34.89 37.32 34.89 39.48C34.89 41.63 36.65 43.38 38.81 43.38C40.96 43.38 42.71 41.63 42.71 39.48C42.71 37.32 40.96 35.57 38.81 35.57ZM38.81 42.08C37.37 42.08 36.19 40.91 36.19 39.48C36.19 38.04 37.37 36.87 38.81 36.87C40.24 36.87 41.41 38.04 41.41 39.48C41.41 40.91 40.24 42.08 38.81 42.08Z" fill="#1A2E35" fill-opacity="1.000000" fill-rule="nonzero"/>
	<path id="Vector" d="M54.29 39.48C54.29 37.32 52.53 35.57 50.38 35.57C48.22 35.57 46.46 37.32 46.46 39.48C46.46 41.63 48.22 43.38 50.38 43.38C52.53 43.38 54.29 41.63 54.29 39.48ZM50.38 42.08C48.94 42.08 47.77 40.91 47.77 39.48C47.77 38.04 48.94 36.87 50.38 36.87C51.81 36.87 52.98 38.04 52.98 39.48C52.98 40.91 51.81 42.08 50.38 42.08Z" fill="#1A2E35" fill-opacity="1.000000" fill-rule="nonzero"/>
	<path id="Vector" d="M58.07 4.17L52.84 4.17L52.84 0.65C52.84 0.29 52.55 0 52.19 0C51.83 0 51.54 0.29 51.54 0.65L51.54 4.17L12.94 4.17L12.94 0.65C12.94 0.29 12.65 0 12.29 0C11.93 0 11.64 0.29 11.64 0.65L11.64 4.17L7.97 4.17C6.24 4.17 4.84 5.57 4.84 7.3C4.84 13.03 4.84 50.42 4.84 50.67L0.65 50.67C0.29 50.67 0 50.96 0 51.32C0 54.21 2.18 56.46 4.84 56.77L4.84 59.41C4.84 61.13 6.24 62.54 7.96 62.54L58.07 62.54C59.79 62.54 61.2 61.13 61.2 59.41C61.2 47.92 61.2 18.2 61.2 7.3C61.2 5.57 59.79 4.17 58.07 4.17ZM7.97 5.47L11.64 5.47L11.64 10.64C11.64 11 11.93 11.3 12.29 11.3C12.65 11.3 12.94 11 12.94 10.64L12.94 5.47L51.54 5.47L51.54 10.64C51.54 11 51.83 11.3 52.19 11.3C52.55 11.3 52.84 11 52.84 10.64L52.84 5.47L58.07 5.47C59.07 5.47 59.89 6.29 59.89 7.3L59.89 15.81L6.14 15.81L6.14 7.3C6.14 6.29 6.96 5.47 7.97 5.47ZM6.14 17.12L59.89 17.12L59.89 51.32C59.89 53.63 58.02 55.51 55.71 55.51C55.7 55.51 55.7 55.51 55.7 55.51C53.39 55.51 51.51 53.64 51.51 51.32C51.51 50.96 51.22 50.67 50.86 50.67L6.14 50.67L6.14 17.12ZM1.35 51.97L50.24 51.97C50.41 53.36 51.09 54.61 52.15 55.51L5.49 55.51C3.38 55.51 1.65 53.96 1.35 51.97ZM59.89 59.41C59.89 60.42 59.07 61.23 58.07 61.23L7.96 61.23C6.96 61.23 6.14 60.42 6.14 59.41L6.14 56.82L55.7 56.82C57.38 56.82 58.89 56.06 59.89 54.87L59.89 59.41L59.89 59.41Z" fill="#1A2E35" fill-opacity="1.000000" fill-rule="nonzero"/>
</svg>
